<?xml version="1.0" encoding="iso-8859-1"?>
<!-- Generator: Adobe Illustrator 19.0.0, SVG Export Plug-In . SVG Version: 6.00 Build 0)  -->
<svg version="1.1" id="Layer_1" xmlns="http://www.w3.org/2000/svg" xmlns:xlink="http://www.w3.org/1999/xlink" x="0px" y="0px"
	 viewBox="0 0 476 476" style="enable-background:new 0 0 476 476;" xml:space="preserve">
<g>
	<polygon style="fill:#EFEFEF;" points="279,94.99 279,299.995 426.001,299.995 	"/>
	<polygon style="fill:#EFEFEF;" points="84.272,299.995 199,299.995 199,139.99 	"/>
	<path style="fill:#3E81C8;" d="M53.996,335.995l6.338,41.221l4.216,1.705c5.134,2.077,8.854,5.635,12.45,9.074
		c5.651,5.408,11.496,11,23.01,11c11.505,0,17.35-5.592,23.004-11.003c5.646-5.406,11.482-10.997,22.996-10.997
		c11.494,0,17.08,5.34,23,11c5.651,5.408,11.496,11,23,11c11.505,0,17.35-5.592,23.004-11.003
		c5.646-5.406,11.482-10.997,22.986-10.997c11.513,0,17.351,5.591,23,11c5.651,5.408,11.496,11,23,11s17.349-5.592,23.007-11.006
		c5.913-5.654,11.499-10.994,22.993-10.994s17.08,5.34,23.001,11.001c5.354,5.121,10.89,10.415,21.248,10.948l1.295,0.067
		l1.249-0.346c24.993-6.914,43.309-27.967,46.659-53.635l1.18-9.036H53.996V335.995z"/>
	<path style="fill:#F8A805;" d="M236.192,41.449c-8.238-7.027-16.999-10.444-26.782-10.444c-13.495,0-26.573,6.313-40.415,12.994
		c-6.751,3.256-13.732,6.622-20.688,9.1c-7.344,2.615-13.796,3.886-19.727,3.886c-6.431,0-12.276-1.422-17.873-4.349L99,46.514
		v42.628l2.803,2.395c8.229,7.03,16.987,10.448,26.777,10.448h0.01c13.506,0,26.574-6.313,40.48-13.03
		c13.223-6.367,26.895-12.95,40.34-12.95c6.429,0,12.279,1.423,17.887,4.352L239,86.468V43.844L236.192,41.449z"/>
	<g>
		<path d="M432.21,294.925L285.5,90.335c-2.03-2.83-5.64-4.02-8.95-2.96c-3.31,1.07-5.55,4.14-5.55,7.62v205c0,4.42,3.58,8,8,8h147
			c0,0,0.01,0,0.02,0c4.42,0,8-3.58,8-8C434.02,298.075,433.34,296.305,432.21,294.925z M376.74,291.995
			c-0.24-0.91-0.63-1.8-1.21-2.62l-46-65c-2.55-3.61-7.55-4.46-11.15-1.91c-3.61,2.55-4.46,7.54-1.91,11.15l41.31,58.38H287v-172.12
			l123.42,172.12H376.74z"/>
		<path d="M201.45,132.375c-3.31-1.06-6.93,0.13-8.95,2.96l-114.74,160c-1.74,2.44-1.98,5.65-0.61,8.31
			c1.37,2.67,4.12,4.35,7.12,4.35H199c4.42,0,8-3.58,8-8v-160C207,136.515,204.75,133.445,201.45,132.375z M191,291.995H99.85
			l12.23-17.06c0.3,0.04,0.61,0.06,0.92,0.06h61c4.42,0,8-3.58,8-8s-3.58-8-8-8h-50.49l67.49-94.12V291.995z"/>
		<path d="M468,390.995c-8.29,0-12.14-3.68-17.47-8.78c-5.83-5.57-13.01-12.43-26.23-13.15c4.92-9.76,7.7-20.77,7.7-32.42v-0.65
			c0-4.42-3.58-8-8-8H247v-284c0-1.39-0.36-2.7-0.99-3.84c-0.01-0.02-0.02-0.03-0.02-0.05c-0.12-0.21-0.25-0.42-0.38-0.62
			c-0.05-0.07-0.11-0.13-0.16-0.2c-0.1-0.14-0.2-0.28-0.32-0.42c-0.06-0.08-0.14-0.16-0.21-0.23c-0.11-0.12-0.21-0.24-0.32-0.35
			c-0.02-0.01-0.03-0.03-0.05-0.05c-10.63-10.25-22.12-15.23-35.14-15.23c-15.3,0-29.83,7.01-43.89,13.78
			c-13.01,6.28-25.29,12.2-36.94,12.2c-4.39,0-8.5-0.85-12.46-2.63c-3.95-1.77-7.77-4.46-11.57-8.12c-2.31-2.23-5.73-2.86-8.68-1.6
			c-2.95,1.25-4.87,4.15-4.87,7.36v45c0,2.17,0.88,4.25,2.44,5.76c10.63,10.25,22.13,15.23,35.14,15.23c0,0,0,0,0.01,0
			c15.29,0,29.83-7.01,43.88-13.78c13.01-6.28,25.3-12.2,36.94-12.2c7.85,0,14.78,2.73,21.59,8.54v235.45H54
			c-2.34,0-4.55,1.02-6.07,2.79c-1.52,1.77-2.19,4.12-1.84,6.43l4.91,31.9c-12.77,0.92-19.81,7.63-25.53,13.1
			c-5.33,5.1-9.18,8.78-17.47,8.78c-4.42,0-8,3.58-8,8s3.58,8,8,8c14.71,0,22.37-7.33,28.53-13.22c5.33-5.1,9.18-8.78,17.47-8.78
			s12.15,3.68,17.48,8.78c6.15,5.89,13.82,13.22,28.53,13.22s22.37-7.33,28.53-13.22c5.33-5.1,9.18-8.78,17.47-8.78
			s12.14,3.68,17.47,8.78c6.15,5.89,13.82,13.22,28.53,13.22s22.37-7.33,28.53-13.22c5.32-5.1,9.18-8.78,17.46-8.78
			c8.29,0,12.14,3.68,17.47,8.78c6.16,5.89,13.82,13.22,28.53,13.22s22.37-7.33,28.53-13.22c5.33-5.1,9.18-8.78,17.47-8.78
			s12.14,3.68,17.47,8.78c6.16,5.89,13.82,13.22,28.53,13.22s22.37-7.33,28.53-13.22c5.33-5.1,9.18-8.78,17.47-8.78
			s12.14,3.68,17.47,8.78c6.16,5.89,13.82,13.22,28.53,13.22c4.42,0,8-3.58,8-8S472.42,390.995,468,390.995z M209.41,68.005
			c-15.3,0-29.83,7.01-43.89,13.78c-13,6.28-25.29,12.2-36.93,12.2h-0.01c-7.85,0-14.78-2.72-21.58-8.53v-25.73
			c6.75,3.53,13.9,5.26,21.58,5.26c7.65,0,15.11-1.75,22.41-4.35s14.45-6.04,21.48-9.43c13.01-6.28,25.3-12.2,36.94-12.2
			c7.85,0,14.78,2.72,21.59,8.53v25.73C224.24,69.735,217.09,68.005,209.41,68.005z M374.66,390.955
			c-7.38-0.38-11.1-3.93-16.13-8.74c-6.16-5.89-13.82-13.22-28.53-13.22s-22.37,7.33-28.53,13.22c-5.33,5.1-9.18,8.78-17.47,8.78
			s-12.14-3.68-17.47-8.78c-6.15-5.89-13.82-13.22-28.53-13.22c-14.7,0-22.37,7.33-28.52,13.22c-5.33,5.1-9.18,8.78-17.47,8.78
			s-12.14-3.68-17.47-8.78c-6.16-5.89-13.82-13.22-28.53-13.22s-22.38,7.33-28.53,13.22c-5.33,5.1-9.18,8.78-17.47,8.78
			s-12.15-3.68-17.48-8.78c-3.91-3.74-8.43-8.06-14.98-10.71l-4.23-27.51h352.2C412.57,366.585,396.17,385.005,374.66,390.955z"/>
		<path d="M376,436.995c-8.289,0-12.14-3.683-17.469-8.781c-6.157-5.89-13.819-13.219-28.529-13.219s-22.373,7.33-28.53,13.219
			c-5.33,5.098-9.18,8.781-17.47,8.781c-8.289,0-12.14-3.683-17.469-8.781c-6.157-5.89-13.819-13.219-28.528-13.219
			c-4.418,0-8,3.582-8,8c0,4.419,3.582,8,8,8c8.289,0,12.14,3.683,17.469,8.781c6.157,5.89,13.819,13.219,28.528,13.219
			c14.71,0,22.373-7.33,28.53-13.219c5.33-5.098,9.18-8.781,17.47-8.781s12.14,3.683,17.469,8.781
			c6.157,5.89,13.819,13.219,28.529,13.219c4.419,0,8-3.581,8-8C384,440.577,380.418,436.995,376,436.995z"/>
	</g>
</g>
<g>
</g>
<g>
</g>
<g>
</g>
<g>
</g>
<g>
</g>
<g>
</g>
<g>
</g>
<g>
</g>
<g>
</g>
<g>
</g>
<g>
</g>
<g>
</g>
<g>
</g>
<g>
</g>
<g>
</g>
</svg>
